<svg id="Camada_1" data-name="Camada 1" xmlns="http://www.w3.org/2000/svg" xmlns:xlink="http://www.w3.org/1999/xlink" viewBox="0 0 144 144"><defs><style>.cls-1{fill:url(#Gradiente_sem_nome_10);}</style><linearGradient id="Gradiente_sem_nome_10" x1="-0.56" y1="72.83" x2="141.26" y2="72.83" gradientUnits="userSpaceOnUse"><stop offset="0" stop-color="#6cbd45"/><stop offset="1" stop-color="#39a3d6"/><stop offset="1" stop-color="#37a2db"/></linearGradient></defs><path class="cls-1" d="M141.7,72.31a1.76,1.76,0,0,0-2.56,0l-1.21,1.29A343,343,0,0,1,111,100C89.73,118.43,72,128.17,59.77,128.17A54.12,54.12,0,0,1,21.13,112a55.51,55.51,0,0,1-16-39.15,55.46,55.46,0,0,1,16-39.15A54.31,54.31,0,0,1,38.5,21.83a53.64,53.64,0,0,1,21.27-4.35c5.86,0,13,2.3,21.24,6.84a152.11,152.11,0,0,1,23.4,16.52c1.68,1.4,3.34,2.82,5,4.25l-6.92,7c-13.26-12-30.17-24.43-43.12-24.43-24.9,0-45.08,20.42-45.08,45.61s20.18,45.61,45.08,45.61,64.48-45.11,64.48-45.11l7.4-7.46,1.21-1.22a1.76,1.76,0,0,0,0-2.45l0,0a1.76,1.76,0,0,0-2.52,0l-1.15,1.15-7.31,7.36L119,73.71A267.69,267.69,0,0,1,98.54,93.56c-16.35,14.18-29.91,21.68-39.21,21.68A41,41,0,0,1,30,103a42.37,42.37,0,0,1,0-59.42A41,41,0,0,1,59.33,31.24c8.11,0,19.66,6,33.41,17.22,2.46,2,4.86,4.1,7.15,6.17l-6.81,6.86c-9.68-9.13-23.37-20-33.61-20a31.9,31.9,0,0,0,0,63.8c17.62,0,45.49-31.51,45.49-31.51l7.21-7.27,2.55-2.57,7.14-7.18,1.29-1.3a1.76,1.76,0,0,0,0-2.5l0,0a1.76,1.76,0,0,0-2.47,0l-1.32,1.33-7.08,7.13L109.68,64l-7.1,7.15-2.5,2.62c-2.73,2.88-7.76,8-13.67,13.1A98.54,98.54,0,0,1,72.17,97.23c-5.06,2.93-9.33,4.42-12.7,4.42a28.29,28.29,0,1,1,0-56.57c8.06,0,20.14,8.7,31.07,19L83.8,70.83c-4.87-5.14-16.1-16-23.88-16a18.43,18.43,0,1,0,0,36.86c10.18,0,26.28-18.21,26.28-18.21l6.9-6.95L95.64,64,102.52,57l2.55-2.57,7-7,1.24-1.26a1.76,1.76,0,0,0-.08-2.55l-1.27-1.13C95.45,28,75.41,13.87,59.77,13.87c-32.19,0-58.28,26.4-58.28,59s26.09,59,58.28,59c29.42,0,74.48-48.68,82-57a1.75,1.75,0,0,0,0-2.39ZM74.52,79.83c-6.09,5.23-11.41,8.23-14.6,8.23a14.82,14.82,0,0,1,0-29.64c4.4,0,12.55,5.71,21.26,14.9l.1.11C79.66,75.11,77.26,77.47,74.52,79.83Z"/></svg>