<svg version="1.0" xmlns="http://www.w3.org/2000/svg"
 width="512.000000pt" height="512.000000pt" viewBox="0 0 512.000000 512.000000"
 preserveAspectRatio="xMidYMid meet">

<g transform="translate(0.000000,512.000000) scale(0.100000,-0.100000)"
fill="#F9A206" stroke="none">
<path d="M2420 5114 c-96 -12 -246 -50 -337 -85 -534 -208 -877 -761 -823
-1327 49 -514 371 -936 852 -1116 65 -25 218 -61 301 -71 l47 -6 0 -327 c-1
-293 -2 -325 -16 -307 -182 243 -405 389 -704 460 -196 47 -551 18 -595 -48
-24 -36 -46 -163 -52 -292 -18 -429 207 -836 583 -1051 44 -24 105 -54 137
-66 31 -11 57 -23 57 -27 -1 -3 -39 -28 -85 -55 -46 -27 -121 -78 -166 -113
l-81 -65 -83 27 c-75 25 -94 27 -196 23 -96 -4 -125 -9 -186 -33 -200 -80
-339 -261 -362 -470 -9 -79 2 -122 40 -149 21 -15 174 -16 1809 -16 1635 0
1788 1 1809 16 39 28 51 71 41 150 -27 212 -164 389 -363 469 -61 24 -90 29
-186 33 -102 4 -121 2 -196 -23 l-83 -27 -81 65 c-45 35 -120 86 -166 113 -80
47 -100 64 -72 64 6 0 58 22 113 49 165 81 316 206 429 356 60 79 148 259 179
365 50 175 58 387 22 558 -26 121 -39 131 -201 157 -230 38 -468 3 -683 -100
-181 -87 -321 -202 -440 -361 l-21 -29 -1 327 0 327 48 6 c403 51 744 267 964
611 203 318 249 763 116 1131 -39 109 -61 133 -122 133 -37 0 -48 -5 -70 -31
-33 -38 -33 -69 0 -155 217 -574 -83 -1223 -660 -1430 -553 -197 -1159 65
-1392 604 -158 365 -103 794 140 1111 24 31 78 89 120 129 301 285 727 375
1124 237 114 -40 122 -41 161 -21 47 25 63 83 36 135 -19 37 -127 83 -274 117
-104 24 -339 39 -431 28z m-735 -2973 c440 -91 748 -451 772 -901 l5 -105
-223 223 c-148 146 -234 225 -254 230 -60 17 -120 -18 -125 -73 -6 -60 0 -68
228 -298 l227 -230 -105 7 c-58 3 -143 15 -190 26 -104 25 -264 101 -347 164
-134 101 -255 261 -317 417 -48 124 -60 193 -60 354 -1 174 5 192 62 198 103
11 243 6 327 -12z m2121 -6 c30 -41 30 -274 -1 -404 -50 -209 -185 -416 -358
-547 -83 -63 -243 -139 -347 -164 -47 -11 -132 -23 -190 -26 l-105 -7 228 230
c227 230 233 238 227 298 -5 55 -65 90 -125 73 -20 -5 -106 -84 -254 -230
l-223 -223 5 105 c24 448 327 804 767 901 114 25 356 22 376 -6z m-971 -1354
c230 -50 440 -159 618 -320 93 -85 106 -87 208 -33 70 36 75 37 178 37 96 0
111 -3 163 -28 87 -43 168 -133 193 -214 l6 -23 -1641 0 -1641 0 6 23 c25 81
106 171 193 214 52 25 67 28 163 28 103 0 108 -1 178 -38 102 -53 115 -51 208
33 198 179 432 292 693 335 116 20 355 13 475 -14z"/>
<path d="M3372 4755 c-44 -19 -67 -73 -52 -120 34 -103 190 -77 190 32 0 43
-25 78 -67 94 -30 11 -31 11 -71 -6z"/>
<path d="M2494 4686 c-24 -20 -28 -32 -32 -90 -3 -40 -9 -66 -16 -66 -28 0
-139 -63 -176 -100 -23 -23 -56 -72 -73 -108 -28 -60 -32 -77 -32 -157 0 -73
5 -100 24 -143 30 -66 105 -136 200 -186 l71 -37 0 -251 0 -251 -37 6 c-21 4
-68 22 -105 42 -37 19 -81 35 -98 35 -70 0 -114 -68 -87 -133 24 -56 165 -131
271 -143 l56 -7 0 -58 c0 -51 4 -63 29 -91 24 -27 36 -33 71 -33 35 0 47 6 71
33 26 29 29 40 29 96 l0 64 38 13 c63 20 119 58 176 119 157 170 165 403 19
560 -51 55 -99 85 -205 128 l-28 12 0 190 0 191 23 -7 c12 -3 41 -18 65 -31
50 -29 96 -26 130 10 72 77 13 161 -153 219 l-65 23 0 48 c0 53 -20 101 -49
117 -34 18 -88 12 -117 -14z m-34 -511 c0 -80 -4 -145 -8 -145 -5 0 -25 15
-46 33 -43 37 -56 91 -36 152 12 37 65 105 81 105 5 0 9 -65 9 -145z m251
-478 c103 -69 113 -217 22 -318 -75 -82 -73 -85 -73 141 0 110 4 200 9 200 4
0 23 -10 42 -23z"/>
</g>
</svg>
