<svg width="146" height="43" viewBox="0 0 146 43" fill="none" xmlns="http://www.w3.org/2000/svg">
<path d="M49.5059 18.8799C49.5059 11.9856 54.248 7.76465 60.3814 7.76465C66.5149 7.76465 71.2518 11.983 71.2518 18.8799C71.2518 25.7768 66.5123 29.9926 60.3762 29.9926C54.2401 29.9926 49.5059 25.769 49.5059 18.8799ZM64.9646 18.8799C64.9646 15.2738 63.1902 13.0617 60.3814 13.0617C57.5726 13.0617 55.8009 15.2712 55.8009 18.8799C55.8009 22.4886 57.5726 24.6955 60.3814 24.6955C63.1902 24.6955 64.9646 22.5016 64.9646 18.8799Z" fill="white"/>
<path d="M96.0204 18.8793C96.0204 25.4922 92.3153 29.9919 87.1146 29.9919C85.9342 30.0138 84.7646 29.7627 83.6971 29.2583C82.6297 28.754 81.693 28.0099 80.9603 27.0842V36.4068H74.7852V8.33985H80.8404V10.8021C82.2162 9.02771 84.3267 7.77444 87.2162 7.77444C92.3752 7.76142 96.0204 12.0241 96.0204 18.8793ZM89.7254 18.8793C89.7254 15.1534 87.9015 13.0429 85.2959 13.0429C82.6669 13.0429 80.7727 15.1924 80.7727 18.8793C80.7727 22.5661 82.6669 24.7131 85.2959 24.7131C87.8937 24.7105 89.7254 22.5792 89.7254 18.8793Z" fill="white"/>
<path d="M117.233 16.4678V29.433H111.177V27.1036C110.242 28.7972 108.311 29.9906 105.341 29.9906C101.477 29.9906 98.2695 27.5205 98.2695 23.3595C98.2695 18.8779 101.597 16.6658 107.991 16.6658H111.018V16.4261C111.018 14.0368 109.604 12.9399 107.352 12.9399C106.482 12.9496 105.624 13.1469 104.837 13.5183C104.049 13.8897 103.351 14.4265 102.79 15.0921L99.1867 11.4287C101.078 9.17486 104.137 7.84082 107.829 7.84082C113.72 7.84082 117.233 10.6496 117.233 16.4678ZM111.058 20.6367H108.587C105.878 20.6367 104.158 21.3558 104.158 23.1276C104.158 24.7196 105.252 25.5768 107.006 25.5768C109.395 25.5768 111.05 23.5262 111.05 21.6685L111.058 20.6367Z" fill="white"/>
<path d="M120.496 24.7906L130.358 13.3575H121.017V8.31836H137.828V13.0083L127.99 24.4024H138.214V29.4311H120.496V24.7906Z" fill="white"/>
<path d="M46.9797 24.4866L48.2017 29.2287C46.0848 29.9221 43.8412 30.14 41.6305 29.867C40.7839 29.7542 39.9602 29.5098 39.1891 29.1427C37.0369 28.0848 36.2917 26.1515 36.2604 23.9003C36.2161 20.6903 36.2474 17.4776 36.2448 14.2598C36.2448 14.0383 36.2292 6.68285 36.2266 3.43634C36.2263 3.09428 36.3336 2.7608 36.5332 2.48306C36.7329 2.20532 37.0148 1.99738 37.3391 1.88864C38.978 1.33887 40.4033 0.867269 42.4043 0.0986328V8.40251H47.4825V13.4078H42.4695C42.446 13.697 42.4121 13.9028 42.4121 14.1087C42.4121 16.7003 42.4121 19.2937 42.4121 21.8888C42.4121 21.9592 42.4121 22.0295 42.4121 22.1025C42.4851 24.3875 43.2772 25.0572 45.5622 24.7471C46.0078 24.6742 46.4481 24.5804 46.9797 24.4866Z" fill="white"/>
<path d="M142.101 6.9295V5.02846H143.064C143.142 5.02846 143.226 5.05078 143.317 5.09543C143.408 5.13837 143.485 5.20534 143.549 5.29636C143.614 5.38566 143.647 5.499 143.647 5.63638C143.647 5.77548 143.613 5.89397 143.546 5.99186C143.479 6.08803 143.398 6.16101 143.301 6.21082C143.207 6.26062 143.118 6.28552 143.034 6.28552H142.338V5.9764H142.905C142.961 5.9764 143.022 5.94807 143.088 5.8914C143.155 5.83473 143.188 5.74972 143.188 5.63638C143.188 5.5196 143.155 5.44061 143.088 5.39939C143.022 5.35818 142.965 5.33757 142.915 5.33757H142.518V6.9295H142.101ZM143.25 6.03308L143.724 6.9295H143.265L142.802 6.03308H143.25ZM142.822 8.06292C142.537 8.06292 142.27 8.00968 142.021 7.90321C141.772 7.79674 141.553 7.64905 141.364 7.46015C141.175 7.27124 141.028 7.05229 140.921 6.80328C140.815 6.55427 140.762 6.28723 140.762 6.00216C140.762 5.71709 140.815 5.45005 140.921 5.20105C141.028 4.95204 141.175 4.73308 141.364 4.54418C141.553 4.35528 141.772 4.20759 142.021 4.10112C142.27 3.99465 142.537 3.94141 142.822 3.94141C143.107 3.94141 143.374 3.99465 143.623 4.10112C143.872 4.20759 144.091 4.35528 144.28 4.54418C144.469 4.73308 144.617 4.95204 144.723 5.20105C144.83 5.45005 144.883 5.71709 144.883 6.00216C144.883 6.28723 144.83 6.55427 144.723 6.80328C144.617 7.05229 144.469 7.27124 144.28 7.46015C144.091 7.64905 143.872 7.79674 143.623 7.90321C143.374 8.00968 143.107 8.06292 142.822 8.06292ZM142.822 7.56834C143.111 7.56834 143.374 7.49793 143.611 7.35711C143.848 7.21629 144.036 7.02739 144.177 6.7904C144.318 6.55342 144.388 6.29067 144.388 6.00216C144.388 5.71366 144.318 5.45091 144.177 5.21393C144.036 4.97694 143.848 4.78804 143.611 4.64722C143.374 4.5064 143.111 4.43599 142.822 4.43599C142.534 4.43599 142.271 4.5064 142.034 4.64722C141.797 4.78804 141.608 4.97694 141.467 5.21393C141.327 5.45091 141.256 5.71366 141.256 6.00216C141.256 6.29067 141.327 6.55342 141.467 6.7904C141.608 7.02739 141.797 7.21629 142.034 7.35711C142.271 7.49793 142.534 7.56834 142.822 7.56834Z" fill="white"/>
<path d="M15.0392 30.0836C13.0705 30.0858 11.1312 29.6063 9.39036 28.687C7.5101 28.1055 5.79982 27.0746 4.40745 25.6836C3.01508 24.2926 1.98254 22.5833 1.39914 20.7036C0.480259 18.9621 0 17.0226 0 15.0535C0 13.0844 0.480259 11.145 1.39914 9.40338C1.97963 7.51984 3.01087 5.80635 4.40341 4.41154C5.79596 3.01672 7.50776 1.9827 9.39036 1.39914C11.1319 0.480258 13.0714 0 15.0405 0C17.0096 0 18.949 0.480258 20.6906 1.39914C22.5717 1.98145 24.2826 3.0135 25.675 4.40594C27.0675 5.79837 28.0995 7.50922 28.6818 9.39036C29.599 11.1325 30.0783 13.0717 30.0783 15.0405C30.0783 17.0093 29.599 18.9485 28.6818 20.6906C28.1008 22.5703 27.0707 24.2802 25.6806 25.6725C24.2906 27.0648 22.5824 28.0977 20.7036 28.6818C18.9585 29.6053 17.0136 30.0866 15.0392 30.0836ZM10.6905 29.0101C13.486 30.1113 16.595 30.1113 19.3904 29.0101C17.9543 29.284 16.4807 29.299 15.0392 29.0544C13.5983 29.2975 12.1255 29.2807 10.6905 29.0049V29.0101ZM15.7739 28.9033C17.3944 29.0845 19.0349 28.932 20.5942 28.4551C22.0337 27.6896 23.3016 26.6381 24.3201 25.365C22.9971 26.186 21.5274 26.7426 19.9923 27.0039C18.7221 27.9024 17.2894 28.5457 15.7739 28.8981V28.9033ZM9.48416 28.4551C11.0435 28.9319 12.6839 29.0844 14.3044 28.9033C12.7889 28.5483 11.3564 27.9033 10.086 27.0039C8.55114 26.7422 7.08146 26.1856 5.75822 25.365C6.77762 26.6358 8.04542 27.6855 9.48416 28.4499V28.4551ZM10.654 27.0872C11.9868 27.9449 13.4779 28.5269 15.0392 28.7991C16.6008 28.5279 18.092 27.9457 19.4243 27.0872C18.9349 27.1457 18.4425 27.1753 17.9496 27.1758C16.9688 27.1762 15.9916 27.0581 15.0392 26.8241C14.0877 27.0583 13.1113 27.1764 12.1314 27.1758C11.6375 27.1736 11.1442 27.1423 10.654 27.082V27.0872ZM24.9455 24.9507C24.1005 26.1441 23.0486 27.1766 21.8397 27.9992C24.5975 26.7983 26.7983 24.5975 27.9992 21.8397C27.175 23.0491 26.1408 24.101 24.9455 24.9455V24.9507ZM2.08961 21.8397C3.2886 24.5961 5.48637 26.7967 8.24131 27.9992C7.03256 27.1774 5.9807 26.1458 5.1355 24.9533C3.94156 24.1066 2.90981 23.0519 2.08961 21.8397ZM15.5551 26.6782C16.9853 26.9664 18.4557 26.9946 19.8959 26.7615C21.0807 25.9108 22.1005 24.8513 22.9053 23.6349C21.7306 24.2735 20.4585 24.7137 19.1403 24.9377C18.0489 25.7108 16.8376 26.2988 15.5551 26.6782ZM10.185 26.7615C11.6244 26.9946 13.094 26.9664 14.5233 26.6782C13.2415 26.2988 12.0311 25.7108 10.9407 24.9377C9.62247 24.7137 8.35034 24.2735 7.17564 23.6349C7.61705 24.3061 8.12605 24.9304 8.69468 25.4978C9.15595 25.9593 9.65442 26.3819 10.185 26.7615ZM23.3691 23.3743C22.601 24.6363 21.6095 25.7479 20.4431 26.6547C21.9926 26.3204 23.459 25.678 24.7553 24.7657C25.6725 23.4671 26.3185 21.997 26.6547 20.4431C25.7454 21.6062 24.6321 22.5942 23.3691 23.3587V23.3743ZM5.31267 24.7709C6.6092 25.6828 8.07555 26.3251 9.62486 26.6599C8.46336 25.7476 7.47647 24.6327 6.71185 23.3691C5.44827 22.6001 4.33425 21.6088 3.42365 20.4431C3.75781 21.9958 4.40017 23.4657 5.31267 24.7657V24.7709ZM11.5061 25.0315C12.5914 25.7356 13.785 26.2567 15.0392 26.5739C16.2937 26.2577 17.4875 25.7365 18.5723 25.0315C17.3968 25.1744 16.2067 25.1463 15.0392 24.9481C13.8711 25.1422 12.681 25.1659 11.5061 25.0184V25.0315ZM15.7739 24.7996C16.8619 24.9195 17.9612 24.8906 19.0413 24.7136C19.9301 24.0743 20.7278 23.3169 21.4124 22.4624C20.5442 23.0016 19.6108 23.428 18.6348 23.7313C17.7294 24.202 16.7682 24.5566 15.7739 24.7865V24.7996ZM11.0397 24.7136C12.1189 24.8906 13.2173 24.9195 14.3044 24.7996C13.3077 24.5661 12.3447 24.2071 11.4383 23.7313C10.4627 23.4283 9.52937 23.0028 8.6608 22.465C9.34809 23.3152 10.1485 24.0673 11.0397 24.7006V24.7136ZM12.775 24.0622C13.5068 24.3472 14.2653 24.5584 15.0392 24.6927C15.8132 24.5591 16.5718 24.3479 17.3034 24.0622C15.806 24.3367 14.2708 24.3323 12.775 24.0492V24.0622ZM6.89424 23.1867C8.00484 23.8495 9.217 24.3249 10.4821 24.5937C9.55004 23.8629 8.7286 23.0011 8.04329 22.0351C7.07674 21.3514 6.21482 20.5308 5.48464 19.5989C5.75558 20.8637 6.23174 22.0757 6.89424 23.1867ZM22.0351 22.0351C21.3514 23.0016 20.5308 23.8635 19.5989 24.5937C20.864 24.3249 22.0761 23.8495 23.1867 23.1867C23.8495 22.0761 24.3249 20.864 24.5937 19.5989C23.8635 20.5308 23.0016 21.3514 22.0351 22.0351ZM26.9856 19.9923C26.7244 21.5274 26.1678 22.9971 25.3467 24.3201C26.6198 23.3016 27.6714 22.0337 28.4369 20.5942C28.9138 19.0349 29.0663 17.3944 28.8851 15.7739C28.5351 17.2889 27.8944 18.7215 26.9986 19.9923H26.9856ZM1.63104 20.5942C2.39568 22.0343 3.44738 23.3024 4.72122 24.3201C3.89896 22.9977 3.34229 21.5277 3.08233 19.9923C2.18112 18.7226 1.53514 17.29 1.18028 15.7739C0.9999 17.3946 1.1533 19.0351 1.63104 20.5942ZM11.5321 23.4864C13.8113 24.1881 16.2488 24.1881 18.528 23.4864C20.6366 22.369 22.3612 20.6444 23.4785 18.5358C24.1803 16.2567 24.1803 13.8191 23.4785 11.5399C22.3632 9.42989 20.6381 7.70476 18.528 6.58939C16.2488 5.88761 13.8113 5.88761 11.5321 6.58939C9.4211 7.70344 7.69563 9.42892 6.58158 11.5399C5.87974 13.82 5.87974 16.2584 6.58158 18.5384C7.69695 20.6485 9.42207 22.3736 11.5321 23.489V23.4864ZM22.9965 19.8099C22.1382 21.0678 21.0521 22.1539 19.7943 23.0122C20.5129 22.695 21.1988 22.3084 21.8423 21.8579C22.2988 21.2155 22.6906 20.5295 23.0122 19.8099H22.9965ZM8.22307 21.8579C8.86582 22.3095 9.55184 22.6962 10.271 23.0122C9.0132 22.1539 7.9271 21.0678 7.06881 19.8099C7.38593 20.5286 7.77252 21.2145 8.22307 21.8579ZM24.9377 19.1403C24.7137 20.4585 24.2735 21.7306 23.6349 22.9053C24.8513 22.1005 25.9108 21.0807 26.7615 19.8959C26.9985 18.456 26.9703 16.9849 26.6782 15.5551C26.2988 16.8376 25.7108 18.0489 24.9377 19.1403ZM3.31161 19.8959C4.16234 21.0807 5.22187 22.1005 6.43827 22.9053C5.79848 21.7311 5.35823 20.4588 5.1355 19.1403C4.36053 18.0497 3.77152 16.8382 3.39239 15.5551C3.23081 16.343 3.14962 17.1453 3.15007 17.9496C3.15217 18.6019 3.20882 19.253 3.31943 19.8959H3.31161ZM5.3726 19.0413C6.01103 19.9301 6.7675 20.7277 7.62119 21.4123C7.08967 20.5429 6.67032 19.6096 6.37313 18.6348C5.89636 17.7289 5.53736 16.7657 5.30486 15.7687C5.18098 16.8579 5.2064 17.959 5.38042 19.0413H5.3726ZM23.7104 18.6348C23.4076 19.611 22.9812 20.5444 22.4415 21.4123C23.2967 20.7285 24.0542 19.9308 24.6927 19.0413C24.8697 17.9612 24.8987 16.8619 24.7787 15.7739C24.5471 16.7684 24.1908 17.7297 23.7183 18.6348H23.7104ZM26.811 15.0392C27.0451 15.9916 27.1632 16.9688 27.1628 17.9496C27.1622 18.4425 27.1327 18.9349 27.0742 19.4243C27.9327 18.092 28.5148 16.6008 28.7861 15.0392C28.5139 13.4779 27.9318 11.9868 27.0742 10.654C27.1327 11.1443 27.1623 11.6376 27.1628 12.1314C27.1659 13.111 27.0504 14.0873 26.8189 15.0392H26.811ZM1.27668 15.0392C1.54766 16.6013 2.13075 18.0927 2.99113 19.4243C2.80917 17.959 2.89748 16.4727 3.25169 15.0392C2.89748 13.6057 2.80917 12.1194 2.99113 10.654C2.1344 11.9868 1.55404 13.478 1.2845 15.0392H1.27668ZM29.0388 15.0392C29.2856 16.4804 29.2714 17.9542 28.9971 19.3904C30.0983 16.595 30.0983 13.486 28.9971 10.6905C29.2723 12.1257 29.2873 13.5987 29.0414 15.0392H29.0388ZM1.07605 10.6905C-0.0251626 13.486 -0.0251626 16.595 1.07605 19.3904C0.800858 17.9544 0.785856 16.4806 1.03176 15.0392C0.785888 13.5987 0.80089 12.1257 1.07605 10.6905ZM24.9351 15.0392C25.1333 16.2067 25.1614 17.3968 25.0184 18.5723C25.7235 17.4875 26.2446 16.2937 26.5609 15.0392C26.2441 13.7848 25.723 12.5911 25.0184 11.5061C25.1616 12.6816 25.1335 13.8717 24.9351 15.0392ZM3.52006 15.0392C3.83981 16.2939 4.36355 17.4875 5.07036 18.5723C4.92825 17.3966 4.95722 16.2066 5.15634 15.0392C4.957 13.8718 4.92803 12.6817 5.07036 11.5061C4.36401 12.5911 3.8403 13.7847 3.52006 15.0392ZM5.39866 15.0392C5.53265 15.8173 5.74387 16.5802 6.0292 17.3164C5.74768 15.8201 5.74768 14.2843 6.0292 12.788C5.74616 13.516 5.53498 14.27 5.39866 15.0392ZM24.0492 12.775C24.334 14.271 24.334 15.8074 24.0492 17.3034C24.3349 16.5718 24.5461 15.8132 24.6797 15.0392C24.5454 14.2653 24.3342 13.5068 24.0492 12.775ZM24.9377 10.9511C25.7108 12.0415 26.2988 13.252 26.6782 14.5337C26.8397 13.7467 26.9209 12.9453 26.9205 12.1418C26.9205 11.4898 26.8674 10.8388 26.7615 10.1955C25.9127 9.00909 24.8528 7.98898 23.6349 7.18606C24.2724 8.35753 24.7126 9.62606 24.9377 10.9407V10.9511ZM3.31161 10.1955C3.20362 10.8386 3.14959 11.4897 3.15007 12.1418C3.14962 12.9453 3.23081 13.7467 3.39239 14.5337C3.77152 13.2514 4.36054 12.0408 5.1355 10.9511C5.35823 9.63258 5.79848 8.36025 6.43827 7.18606C5.22032 7.98898 4.16047 9.00909 3.31161 10.1955ZM26.9908 10.0965C27.8903 11.3668 28.5353 12.7993 28.8903 14.3148C29.0737 12.6966 28.9238 11.0579 28.4499 9.49979C27.6844 8.06028 26.6329 6.79237 25.3598 5.77386C26.1788 7.09221 26.7353 8.55646 26.9986 10.086L26.9908 10.0965ZM1.63104 9.49979C1.1533 11.058 0.999889 12.6976 1.18028 14.3174C1.53621 12.8018 2.1821 11.3693 3.08233 10.0991C3.34261 8.56459 3.89927 7.09551 4.72122 5.77386C3.44738 6.79163 2.39568 8.0597 1.63104 9.49979ZM23.7183 11.4592C24.1941 12.3655 24.5531 13.3286 24.7865 14.3253C24.9065 13.2382 24.8776 12.1398 24.7006 11.0605C24.0626 10.1705 23.3051 9.37266 22.4494 8.68946C22.9874 9.55088 23.4138 10.4772 23.7183 11.4461V11.4592ZM5.38042 11.0397C5.20339 12.1189 5.17446 13.2173 5.29444 14.3044C5.52666 13.3073 5.88567 12.3441 6.36271 11.4383C6.66406 10.462 7.08964 9.52856 7.62901 8.6608C6.77421 9.34719 6.01763 10.1476 5.38042 11.0397ZM22.0351 8.04329C23.0011 8.7286 23.8629 9.55003 24.5937 10.4821C24.3249 9.217 23.8495 8.00484 23.1867 6.89424C22.0757 6.23174 20.8637 5.75558 19.5989 5.48464C20.5308 6.21482 21.3514 7.07674 22.0351 8.04329ZM6.89424 6.89424C6.23174 8.00526 5.75558 9.21723 5.48464 10.4821C6.21547 9.55003 7.07728 8.7286 8.04329 8.04329C8.7286 7.07728 9.55004 6.21547 10.4821 5.48464C9.21723 5.75558 8.00526 6.23174 6.89424 6.89424ZM19.8099 7.06881C21.0687 7.93018 22.1549 9.01988 23.0122 10.2815C22.6962 9.56226 22.3095 8.87624 21.8579 8.23349C21.2155 7.77837 20.5295 7.38823 19.8099 7.06881ZM8.22307 8.22307C7.77084 8.86912 7.38418 9.55866 7.06881 10.2815C7.92917 9.01893 9.01893 7.92917 10.2815 7.06881C9.55815 7.38315 8.86851 7.76988 8.22307 8.22307ZM23.3691 6.71185C24.6309 7.47697 25.744 8.46383 26.6547 9.62486C26.3204 8.07619 25.678 6.6106 24.7657 5.31528C23.4664 4.40092 21.9963 3.75758 20.4431 3.42365C21.6088 4.33425 22.6001 5.44827 23.3691 6.71185ZM5.31267 5.31528C4.40144 6.6112 3.75912 8.07657 3.42365 9.62486C3.72847 9.2371 4.0565 8.86817 4.40594 8.5201C5.098 7.82562 5.87239 7.21836 6.71185 6.71185C7.21836 5.87239 7.82562 5.098 8.5201 4.40594C8.86818 4.0565 9.2371 3.72847 9.62486 3.42365C8.07539 3.75938 6.60906 4.40262 5.31267 5.31528ZM8.24131 2.08961C5.48779 3.29022 3.29022 5.48779 2.08961 8.24131C2.91054 7.03184 3.94225 5.97984 5.1355 5.1355C5.9807 3.94299 7.03256 2.91142 8.24131 2.08961ZM24.9455 5.1355C26.1408 5.97998 27.175 7.03188 27.9992 8.24131C26.7986 5.48779 24.601 3.29022 21.8475 2.08961C23.0534 2.91215 24.1026 3.94367 24.9455 5.1355ZM18.6348 6.37313C19.6103 6.6766 20.5435 7.10207 21.4124 7.63943C20.7277 6.78574 19.9301 6.02926 19.0413 5.39084C17.9612 5.21383 16.8619 5.1849 15.7739 5.30486C16.7691 5.53778 17.7305 5.89677 18.6348 6.37313ZM11.0397 5.39084C10.1504 6.02861 9.35261 6.78517 8.66862 7.63943C9.53718 7.10157 10.4705 6.67608 11.4461 6.37313C12.352 5.8961 13.3152 5.53708 14.3122 5.30486C13.223 5.18072 12.122 5.20614 11.0397 5.38042V5.39084ZM19.1403 5.14331C20.4588 5.36605 21.7311 5.8063 22.9053 6.44609C22.1005 5.22969 21.0807 4.17016 19.8959 3.31943C18.4559 3.08551 16.9854 3.11287 15.5551 3.4002C16.8382 3.77934 18.0497 4.36834 19.1403 5.14331ZM10.185 3.31943C9.65442 3.69905 9.15595 4.12171 8.69468 4.58312C8.12605 5.15061 7.61705 5.77486 7.17564 6.44609C8.34983 5.8063 9.62216 5.36605 10.9407 5.14331C12.0304 4.36835 13.241 3.77934 14.5233 3.4002C13.0938 3.11285 11.6242 3.08548 10.185 3.31943ZM15.0392 5.81815C15.7988 5.81797 16.5569 5.88862 17.3034 6.0292C16.5714 5.7447 15.8129 5.53349 15.0392 5.39866C14.2656 5.53415 13.5072 5.74534 12.775 6.0292C13.5215 5.88877 14.2795 5.81812 15.0392 5.81815ZM12.9834 4.97135C13.6724 4.97089 14.3601 5.02929 15.0392 5.14592C16.2071 4.95026 17.3971 4.92481 18.5723 5.07036C17.4868 4.3672 16.2932 3.847 15.0392 3.53048C13.7855 3.84802 12.5921 4.36816 11.5061 5.07036C11.9962 5.00873 12.4895 4.97567 12.9834 4.97135ZM9.48416 1.63104C8.04452 2.39635 6.77658 3.44795 5.75822 4.72122C7.08146 3.90057 8.55114 3.34402 10.086 3.08233C11.3563 2.1821 12.7888 1.53621 14.3044 1.18028C12.6837 1.00108 11.0435 1.15446 9.48416 1.63104ZM19.9923 3.08233C21.5274 3.34357 22.9971 3.90015 24.3201 4.72122C23.3024 3.44738 22.0343 2.39568 20.5942 1.63104C19.0348 1.15446 17.3946 1.00108 15.7739 1.18028C17.29 1.53514 18.7226 2.18112 19.9923 3.08233ZM12.1314 2.91036C13.1114 2.90852 14.0879 3.02665 15.0392 3.26211C16.4732 2.91165 17.9588 2.82338 19.4243 3.00155C18.0927 2.14118 16.6013 1.55808 15.0392 1.2871C13.4774 1.55904 11.9861 2.14207 10.654 3.00155C11.1442 2.94085 11.6375 2.9104 12.1314 2.91036ZM17.0976 0.857189C17.8671 0.857196 18.6348 0.930481 19.3904 1.07605C16.595 -0.0251626 13.486 -0.0251626 10.6905 1.07605C12.1257 0.80089 13.5987 0.785888 15.0392 1.03176C15.7193 0.91643 16.4078 0.858037 17.0976 0.857189Z" fill="white"/>
<path d="M95.3293 42.2783C94.9853 42.1886 94.6611 42.0358 94.373 41.8275L94.7951 40.8921C95.045 41.0711 95.3221 41.2084 95.6159 41.2986C95.9239 41.3989 96.2456 41.4508 96.5695 41.4523C96.8396 41.4707 97.1097 41.4158 97.3512 41.2934C97.4288 41.2546 97.4941 41.1951 97.5401 41.1216C97.586 41.048 97.6109 40.9632 97.6117 40.8765C97.6127 40.8154 97.5998 40.7548 97.5741 40.6993C97.5484 40.6438 97.5105 40.5948 97.4632 40.556C97.3482 40.4652 97.2175 40.3964 97.0776 40.3528C96.9213 40.3033 96.7102 40.246 96.4445 40.186C96.1036 40.1082 95.7677 40.0099 95.4387 39.8916C95.1782 39.7966 94.9467 39.636 94.7665 39.4252C94.5696 39.1822 94.4694 38.8751 94.4851 38.5628C94.4854 38.2608 94.5761 37.9659 94.7456 37.716C94.9364 37.4439 95.2027 37.2337 95.5117 37.1115C95.9081 36.9528 96.3329 36.8774 96.7597 36.89C97.0988 36.8888 97.4366 36.93 97.7655 37.0125C98.0687 37.0842 98.3588 37.2029 98.6253 37.3642L98.2423 38.3101C97.7908 38.0417 97.277 37.8962 96.7519 37.888C96.4804 37.8667 96.2086 37.9256 95.9702 38.0573C95.8919 38.1026 95.8266 38.1674 95.7809 38.2456C95.7353 38.3237 95.7107 38.4124 95.7097 38.5029C95.7095 38.5926 95.7369 38.6802 95.7882 38.7538C95.8394 38.8275 95.9121 38.8836 95.9963 38.9145C96.2804 39.0306 96.5755 39.1179 96.877 39.1751C97.2174 39.2534 97.5532 39.3508 97.8827 39.4669C98.1407 39.5642 98.3714 39.7224 98.555 39.9281C98.7523 40.1668 98.8527 40.4709 98.8364 40.7801C98.8379 41.0807 98.747 41.3746 98.5758 41.6217C98.3797 41.895 98.108 42.1051 97.7941 42.2262C97.3958 42.3844 96.9693 42.4597 96.5409 42.4477C96.1311 42.4477 95.7233 42.3907 95.3293 42.2783Z" fill="white"/>
<path d="M103.86 41.3578V42.3583H99.6914V36.9805H103.753V37.9784H100.932V39.1457H103.43V40.1149H100.932V41.3578H103.86Z" fill="white"/>
<path d="M108.277 42.3591L107.234 40.8609H106.09V42.3591H104.863V36.9813H107.19C107.616 36.9715 108.039 37.0532 108.43 37.221C108.761 37.3612 109.043 37.596 109.241 37.8958C109.436 38.2074 109.535 38.5702 109.525 38.938C109.539 39.3007 109.44 39.6589 109.242 39.9632C109.045 40.2674 108.757 40.5028 108.42 40.6368L109.626 42.3643L108.277 42.3591ZM107.961 38.2371C107.714 38.0593 107.413 37.9736 107.109 37.9948H106.096V39.8708H107.109C107.413 39.8905 107.715 39.8029 107.961 39.6233C108.054 39.533 108.127 39.4252 108.177 39.3062C108.227 39.1872 108.253 39.0593 108.253 38.9302C108.253 38.8011 108.227 38.6732 108.177 38.5542C108.127 38.4352 108.054 38.3274 107.961 38.2371Z" fill="white"/>
<path d="M115.665 36.9805L113.338 42.3583H112.108L109.789 36.9805H111.134L112.767 40.821L114.427 36.9805H115.665Z" fill="white"/>
<path d="M117.135 42.0924C116.703 41.8637 116.343 41.5213 116.092 41.1023C115.845 40.6652 115.715 40.1715 115.715 39.6692C115.715 39.1669 115.845 38.6732 116.092 38.2362C116.343 37.8172 116.703 37.4748 117.135 37.2461C117.595 37.0032 118.11 36.8804 118.63 36.8891C119.064 36.8822 119.494 36.9656 119.894 37.134C120.261 37.2913 120.586 37.5332 120.842 37.8401L120.043 38.5775C119.879 38.3778 119.672 38.2176 119.438 38.1088C119.204 38.0001 118.948 37.9457 118.69 37.9496C118.379 37.9446 118.072 38.02 117.799 38.1684C117.543 38.3105 117.331 38.5218 117.189 38.7781C117.046 39.0531 116.97 39.3589 116.97 39.6692C116.97 39.9796 117.046 40.2853 117.189 40.5603C117.331 40.8167 117.543 41.028 117.799 41.17C118.072 41.3185 118.379 41.3939 118.69 41.3889C118.949 41.3926 119.205 41.3373 119.44 41.2271C119.674 41.117 119.88 40.9549 120.043 40.7531L120.842 41.4905C120.587 41.8026 120.26 42.0476 119.889 42.2044C119.488 42.3727 119.057 42.4561 118.622 42.4493C118.105 42.4562 117.593 42.3335 117.135 42.0924Z" fill="white"/>
<path d="M122.657 42.0892C122.218 41.8551 121.852 41.5063 121.596 41.08C121.34 40.6536 121.205 40.1658 121.205 39.6686C121.205 39.1715 121.34 38.6837 121.596 38.2573C121.852 37.831 122.218 37.4822 122.657 37.2481C123.124 37.0118 123.641 36.8887 124.164 36.8887C124.688 36.8887 125.204 37.0118 125.672 37.2481C126.11 37.4822 126.477 37.831 126.733 38.2573C126.989 38.6837 127.124 39.1715 127.124 39.6686C127.124 40.1658 126.989 40.6536 126.733 41.08C126.477 41.5063 126.11 41.8551 125.672 42.0892C125.204 42.3255 124.688 42.4486 124.164 42.4486C123.641 42.4486 123.124 42.3255 122.657 42.0892ZM125.028 41.1694C125.282 41.0262 125.49 40.8151 125.63 40.5597C125.774 40.2847 125.849 39.979 125.849 39.6686C125.849 39.3583 125.774 39.0526 125.63 38.7776C125.491 38.5194 125.283 38.3054 125.028 38.16C124.764 38.0164 124.468 37.9411 124.167 37.9411C123.866 37.9411 123.57 38.0164 123.306 38.16C123.052 38.3033 122.844 38.5144 122.704 38.7697C122.56 39.0447 122.485 39.3505 122.485 39.6608C122.485 39.9712 122.56 40.2769 122.704 40.5519C122.844 40.8072 123.052 41.0184 123.306 41.1616C123.57 41.3053 123.866 41.3806 124.167 41.3806C124.468 41.3806 124.764 41.3053 125.028 41.1616V41.1694Z" fill="white"/>
<path d="M131.474 42.3591L130.432 40.8609H129.288V42.3591H128.053V36.9812H130.379C130.806 36.9717 131.23 37.0534 131.622 37.2209C131.953 37.362 132.234 37.5966 132.433 37.8958C132.627 38.2079 132.726 38.5703 132.717 38.938C132.73 39.3007 132.63 39.6586 132.432 39.9627C132.234 40.2668 131.946 40.5022 131.609 40.6368L132.816 42.3643L131.474 42.3591ZM131.159 38.2371C130.912 38.0593 130.61 37.9735 130.307 37.9948H129.293V39.8708H130.307C130.611 39.8905 130.912 39.8029 131.159 39.6232C131.251 39.533 131.324 39.4252 131.374 39.3061C131.424 39.1871 131.45 39.0593 131.45 38.9302C131.45 38.801 131.424 38.6732 131.374 38.5542C131.324 38.4352 131.251 38.3274 131.159 38.2371Z" fill="white"/>
<path d="M137.856 41.3578V42.3583H133.688V36.9805H137.752V37.9784H134.93V39.1457H137.432V40.1149H134.93V41.3578H137.856Z" fill="white"/>
</svg>
